<svg width="31" height="30" viewBox="0 0 31 30" fill="none" xmlns="http://www.w3.org/2000/svg">
<rect x="0.500061" y="3.8147e-05" width="30" height="30" rx="8" fill="#3182CE"/>
<g clip-path="url(#clip0_2017_77)">
<path d="M15.6629 10.4675C15.6193 10.4258 15.5613 10.4025 15.5009 10.4025C15.4406 10.4025 15.3825 10.4258 15.3389 10.4675L9.94537 15.62C9.92247 15.6419 9.90424 15.6682 9.89181 15.6974C9.87937 15.7265 9.87297 15.7579 9.87301 15.7896L9.87213 20.6254C9.87213 20.874 9.9709 21.1124 10.1467 21.2883C10.3225 21.4641 10.561 21.5629 10.8096 21.5629H13.6251C13.7494 21.5629 13.8686 21.5135 13.9565 21.4256C14.0444 21.3377 14.0938 21.2184 14.0938 21.0941V17.1097C14.0938 17.0476 14.1185 16.988 14.1625 16.944C14.2064 16.9 14.266 16.8754 14.3282 16.8754H16.6719C16.7341 16.8754 16.7937 16.9 16.8377 16.944C16.8816 16.988 16.9063 17.0476 16.9063 17.1097V21.0941C16.9063 21.2184 16.9557 21.3377 17.0436 21.4256C17.1315 21.5135 17.2507 21.5629 17.3751 21.5629H20.1893C20.438 21.5629 20.6764 21.4641 20.8522 21.2883C21.028 21.1124 21.1268 20.874 21.1268 20.6254V15.7896C21.1269 15.7579 21.1205 15.7265 21.108 15.6974C21.0956 15.6682 21.0774 15.6419 21.0545 15.62L15.6629 10.4675Z" fill="white"/>
<path d="M22.3826 14.6537L20.1912 12.5573V9.37591C20.1912 9.25159 20.1418 9.13236 20.0539 9.04445C19.966 8.95654 19.8467 8.90716 19.7224 8.90716H18.3162C18.1918 8.90716 18.0726 8.95654 17.9847 9.04445C17.8968 9.13236 17.8474 9.25159 17.8474 9.37591V10.3134L16.1505 8.69095C15.9917 8.5304 15.7556 8.43841 15.5004 8.43841C15.2461 8.43841 15.0106 8.5304 14.8518 8.69124L8.62036 14.6532C8.43813 14.8289 8.41528 15.1181 8.5811 15.3085C8.62274 15.3566 8.67373 15.3957 8.73096 15.4234C8.78818 15.4512 8.85046 15.467 8.91399 15.4699C8.97751 15.4728 9.04097 15.4627 9.10049 15.4403C9.16001 15.4179 9.21435 15.3836 9.2602 15.3396L15.3393 9.5306C15.3829 9.48887 15.441 9.46558 15.5013 9.46558C15.5617 9.46558 15.6197 9.48887 15.6633 9.5306L21.743 15.3396C21.8326 15.4255 21.9525 15.4723 22.0766 15.4699C22.2006 15.4675 22.3187 15.416 22.4048 15.3267C22.5847 15.1404 22.5698 14.8327 22.3826 14.6537Z" fill="white"/>
</g>
<defs>
<clipPath id="clip0_2017_77">
<rect width="15" height="15" fill="white" transform="translate(8.00006 7.50004)"/>
</clipPath>
</defs>
</svg>
